<svg id="Capa_1" enable-background="new 0 0 512.003 512.003" height="512" viewBox="0 0 512.003 512.003" width="512" xmlns="http://www.w3.org/2000/svg"><g><g><g clip-rule="evenodd" fill-rule="evenodd"><path d="m105.002 94.939c33.219-1.373 44.419-25.538 44.966-40.796h59.555c-16.296.141-29.522 13.726-29.522 30 0 16.569 13.431 30 30 30v30.358h30.001v-49.563c11.146 4.476 22.182 3.597 33.17-1.259 2 30.913 27.702 55.368 59.12 55.368 19.289 0 36.423-9.219 47.242-23.49 13.061 14.978 32.284 24.445 53.718 24.445 39.35 0 71.25-31.9 71.25-71.25s-31.9-71.25-71.25-71.25c-27.001 0-50.493 15.021-62.579 37.161-10.34-8.801-23.739-14.115-38.381-14.115-12.543 0-24.173 3.901-33.75 10.551-5.049-19.331-22.628-33.596-43.541-33.596h-135c-25.515 0-45.881 21.161-44.967 46.641-16.529-.143-30.033 13.557-30.033 30 0 16.569 13.431 30 30 30v30.359h30.001zm317.398 197.406c16.59 0 30.038-13.449 30.038-30.038 0-17.42-14.73-31.124-32.072-29.968 4.142-24.277-14.483-46.647-39.317-46.647-22.031 0-39.89 17.859-39.89 39.89 0 26.831 25.905 45.756 51.241 38.249.794 15.882 13.922 28.514 30 28.514z" fill="#ddddde"/><path d="m55.501 264.501h69.001l-4.5-59.999h-60.001z" fill="#717f98"/><path d="m37.501 504.502h105l-18-240.001h-69zm22.5-300h60.001v-60.001h-60.001z" fill="#717f98"/><path d="m142.502 504.502h29.999l11.25-150h-52.499z" fill="#b0c5e0"/><path d="m277.501 504.502h197.001v-180l-103.25 29.5v-29.5l-105.001 30z" fill="#e5ecf5"/><path d="m55.501 264.501h22.5l4.5-59.999h-22.5z" fill="#717f98"/><path d="m37.501 504.502h22.5l18-240.001h-22.5zm22.5-300h22.5v-60.001h-22.5z" fill="#717f98"/><path d="m37.501 504.502h105l-18-240.001h-69zm135 0h105l-18-240.001h-69zm22.5-300h60.001v-60.001h-60.001zm-135 0h60.001v-60.001h-60.001z" fill="#e08ea2"/><path d="m190.501 264.501h69l-4.5-59.999h-60.001zm-135 0h69l-4.5-59.999h-60z" fill="#e5ecf5"/><path d="m55.501 264.501h22.5l4.5-59.999h-22.5zm135 0h22.5l4.5-59.999h-22.5z" fill="#717f98"/><path d="m37.501 504.502h22.5l18-240.001h-22.5zm135 0h22.5l18-240.001h-22.5zm22.5-300h22.5v-60.001h-22.5zm-135 0h22.5v-60.001h-22.5z" fill="#d15573"/><path d="m277.501 504.502h22.5l-11.871-156.251-21.878 6.251zm93.751 0h22.5v-156.929l-22.5 6.428z" fill="#b0c5e0"/><path d="m210.001 122.001v22.5h30.001v-22.5zm182.319 65.296c-25.324-7.416-51.16 11.484-51.16 38.285 0 26.806 25.857 45.72 51.171 38.269-16.147-4.785-28.671-19.614-28.671-38.269-.001-18.131 12.097-33.434 28.66-38.285zm-119.149-93.618c2 30.913 27.702 55.368 59.12 55.368 19.289 0 36.423-9.219 47.242-23.49 13.061 14.978 32.284 24.445 53.718 24.445 44.005 0 77.206-39.366 70.363-82.5-9.521 60.017-93.873 70.767-124.081 28.056-20.858 47.304-84.34 42.823-106.362-1.879zm-198.17 50.824h30.001v-22.5h-30.001z" fill="#9a999d"/></g><g><path d="m232.501 182.001h-15v-15h15zm-135 0h-15v-15h15zm365.75-118.249h-15v-15h15z" fill="#fff"/></g></g><g><path d="m482.001 497.001v-182.442l-103.25 29.5v-29.5l-105.71 30.202-10.54-140.54v-52.22h15v-15h-29.999v-32.238c6.387 1.021 12.904.691 19.509-1.007 6.458 30.272 33.474 52.792 65.28 52.792 18.164 0 35.082-7.165 47.571-19.911 14.475 13.348 33.505 20.865 53.389 20.865 43.423 0 78.75-35.327 78.75-78.75 0-17.981-6.224-35.569-17.525-49.525l-11.657 9.44c9.278 11.457 14.183 25.318 14.183 40.084 0 35.152-28.598 63.75-63.75 63.75-18.424 0-35.943-7.973-48.065-21.874l-6.059-6.948-5.57 7.346c-9.888 13.042-24.928 20.521-41.266 20.521-27.201 0-49.882-21.239-51.636-48.353l-.693-10.717-9.823 4.342c-7.949 3.514-15.4 4.394-22.637 2.66v-12.478h-15v60h-15.003v-45.356h-15v13.709c-8.729-3.096-15-11.432-15-21.21 0-6.031 2.391-11.723 6.731-16.026 4.163-4.127 9.59-6.417 15.324-6.474h.477l.064-15c-.203-.001-.406-.001-.611 0h-66.755l-.259 7.231c-.386 10.757-7.315 28.5-29.971 32.707v-14.142h-15v64.562h-14.999v-45.357h-15v13.709c-8.729-3.096-15-11.432-15-21.21 0-6.031 2.391-11.723 6.731-16.026 4.262-4.226 9.84-6.5 15.736-6.474l7.841.068-.281-7.836c-.369-10.285 3.358-20.023 10.494-27.42 7.125-7.385 16.706-11.453 26.978-11.453h135c17.059 0 31.979 11.511 36.285 27.992l2.714 10.389 8.82-6.124c8.679-6.026 18.87-9.211 29.473-9.211 12.276 0 24.181 4.377 33.52 12.327l7.024 5.979 4.42-8.096c11.197-20.512 32.654-33.254 55.996-33.254 14.769 0 28.629 4.904 40.084 14.182l9.441-11.656c-13.954-11.304-31.542-17.528-49.526-17.528-25.957 0-50.025 12.755-64.658 33.782-10.754-6.969-23.368-10.736-36.302-10.736-10.456 0-20.605 2.404-29.812 7.013-8.538-18.086-26.897-30.059-47.479-30.059h-135c-14.38 0-27.794 5.696-37.772 16.038-8.329 8.633-13.34 19.542-14.476 31.272-7.143 1.381-13.746 4.864-19.08 10.153-7.204 7.142-11.171 16.616-11.171 26.678 0 18.11 12.904 33.261 30 36.745v16.113h-30v15h15v52.22l-12.917 172.24 14.958 1.122 7.918-105.582h55.083l16.875 225h-88.833l7.834-104.459-14.958-1.122-7.918 105.581h-30.543v15h512.003v-15zm-15-162.556v162.556h-88.25v-137.342zm-103.249 0v162.556h-79.292l-10.272-136.967zm-94.335 162.556h-88.833l16.875-225h55.083zm-66.916-345h45v45.001h-45zm-.541 60.001h46.083l3.375 44.999h-52.833zm-89.458-60.001v45.001h-45.001v-45.001zm-48.917 105 3.375-44.999h46.084l3.375 44.999zm48.917-120v-35.236c26.335-3.782 40.657-21.81 44.144-40.121h23.375c-4.881 6.478-7.52 14.293-7.52 22.5 0 18.109 12.904 33.261 30 36.745v16.113h-30v15h15v52.22l-10.709 142.78h-38.582l-10.708-142.78v-52.22h15v-15h-30zm26.833 225h36.332l-10.125 135h-16.082z"/><path d="m428.439 225.272c-.072-11.007-3.973-21.712-11.199-30.275-9.012-10.68-22.203-16.805-36.191-16.805-26.131 0-47.39 21.259-47.39 47.39 0 15.078 6.931 28.9 19.016 37.924 9.854 7.358 21.767 10.548 33.639 9.193 4.511 15.753 19.004 27.146 36.085 27.146 20.699 0 37.539-16.839 37.539-37.538 0-10.501-4.219-20.232-11.88-27.399-5.458-5.108-12.328-8.437-19.619-9.636zm-6.039 59.573c-12.022 0-21.91-9.395-22.509-21.389l-.476-9.527-9.146 2.71c-9.88 2.93-20.312 1.05-28.62-5.153-8.255-6.164-12.99-15.606-12.99-25.905 0-17.86 14.53-32.39 32.39-32.39 9.559 0 18.571 4.184 24.727 11.479 6.187 7.331 8.81 16.956 7.197 26.408l-1.6 9.377 9.491-.632c6.31-.42 12.333 1.724 16.946 6.039 4.596 4.3 7.127 10.141 7.127 16.446.002 12.427-10.109 22.537-22.537 22.537z"/><path d="m407.002 384.001h15v98h-15z"/><path d="m437.002 384.001h15v98h-15z"/><path d="m303.752 384.001h15v98h-15z"/><path d="m333.752 384.001h15v98h-15z"/></g></g></svg>