<?xml version="1.0" encoding="iso-8859-1"?>
<!-- Generator: Adobe Illustrator 19.0.0, SVG Export Plug-In . SVG Version: 6.00 Build 0)  -->
<svg version="1.1" id="Capa_1" xmlns="http://www.w3.org/2000/svg" xmlns:xlink="http://www.w3.org/1999/xlink" x="0px" y="0px"
	 viewBox="0 0 512 512" style="enable-background:new 0 0 512 512;" xml:space="preserve">
<path style="fill:#57E5D0;" d="M287.972,148.172l-31.575,107.431l107.431-31.575C597.527,161.409,350.591-85.526,287.972,148.172z"
	/>
<circle style="fill:#003F8A;" cx="409.703" cy="102.297" r="13.761"/>
<path style="fill:#003068;" d="M409.702,102.298c3.599-3.599,8.695-4.775,13.283-3.553c-0.603-2.262-1.778-4.403-3.553-6.178
	c-5.374-5.374-14.087-5.374-19.461,0c-5.374,5.374-5.374,14.087,0,19.461c1.774,1.774,3.916,2.95,6.178,3.553
	C404.927,110.993,406.103,105.898,409.702,102.298z"/>
<path style="fill:#57E5D0;" d="M148.172,287.972l107.431-31.575l-31.575,107.431C161.409,597.527-85.526,350.591,148.172,287.972z"
	/>
<circle style="fill:#003F8A;" cx="102.297" cy="409.703" r="13.761"/>
<path style="fill:#003068;" d="M102.298,409.702c-3.599,3.599-4.775,8.695-3.553,13.283c-2.262-0.603-4.403-1.778-6.178-3.553
	c-5.374-5.374-5.374-14.087,0-19.461c5.374-5.374,14.087-5.374,19.461,0c1.774,1.774,2.95,3.916,3.553,6.178
	C110.993,404.927,105.898,406.103,102.298,409.702z"/>
<path style="fill:#57E5D0;" d="M363.828,287.972l-107.431-31.575l31.575,107.431C350.591,597.527,597.527,350.591,363.828,287.972z"
	/>
<circle style="fill:#003F8A;" cx="409.703" cy="409.703" r="13.761"/>
<path style="fill:#003068;" d="M409.702,409.702c3.599,3.599,4.775,8.695,3.553,13.283c2.262-0.603,4.403-1.778,6.178-3.553
	c5.374-5.374,5.374-14.087,0-19.461c-5.374-5.374-14.087-5.374-19.461,0c-1.774,1.774-2.95,3.916-3.553,6.178
	C401.008,404.927,406.103,406.103,409.702,409.702z"/>
<path style="fill:#57E5D0;" d="M224.029,148.172l31.575,107.431l-107.431-31.575C-85.526,161.409,161.409-85.526,224.029,148.172z"
	/>
<g>
	<path style="fill:#FF5C5C;" d="M278.964,178.822l-22.567,76.782l76.782-22.567C500.205,188.282,323.718,11.796,278.964,178.822z"/>
	<path style="fill:#FF5C5C;" d="M178.822,278.964l76.782-22.567l-22.567,76.782C188.282,500.205,11.796,323.718,178.822,278.964z"/>
	<path style="fill:#FF5C5C;" d="M333.178,278.964l-76.782-22.567l22.567,76.782C323.718,500.205,500.205,323.718,333.178,278.964z"
		/>
	<path style="fill:#FF5C5C;" d="M233.036,178.822l22.567,76.782l-76.782-22.567C11.796,188.282,188.282,11.796,233.036,178.822z"/>
</g>
<g>
	<path style="fill:#FF3333;" d="M302.292,129.776c-9.326,11.16-17.461,27.145-23.329,49.045l-22.567,76.781l76.781-22.567
		c21.9-5.868,37.885-14.003,49.046-23.329C368.629,172.755,339.245,143.372,302.292,129.776z"/>
	<path style="fill:#FF3333;" d="M382.224,302.292c-11.16-9.326-27.145-17.461-49.045-23.329l-76.781-22.567l22.567,76.781
		c5.868,21.9,14.003,37.885,23.329,49.046C339.245,368.629,368.629,339.245,382.224,302.292z"/>
	<path style="fill:#FF3333;" d="M209.708,382.224c9.326-11.16,17.461-27.145,23.329-49.045l22.567-76.781l-76.781,22.567
		c-21.9,5.868-37.885,14.003-49.046,23.329C143.372,339.245,172.755,368.629,209.708,382.224z"/>
	<path style="fill:#FF3333;" d="M129.776,209.708c11.16,9.326,27.145,17.461,49.045,23.329l76.781,22.567l-22.567-76.781
		c-5.868-21.9-14.003-37.885-23.329-49.046C172.755,143.372,143.372,172.755,129.776,209.708z"/>
</g>
<circle style="fill:#003F8A;" cx="102.297" cy="102.297" r="13.761"/>
<path style="fill:#003068;" d="M102.298,102.298c-3.599-3.599-8.695-4.775-13.283-3.553c0.603-2.262,1.778-4.403,3.553-6.178
	c5.374-5.374,14.087-5.374,19.461,0s5.374,14.087,0,19.461c-1.774,1.774-3.916,2.95-6.178,3.553
	C107.073,110.993,105.898,105.898,102.298,102.298z"/>
<path style="fill:#003F8A;" d="M202.362,157.147L256,255.44l53.638-98.293C430.61-52.382,81.391-52.382,202.362,157.147z"/>
<path style="fill:#003068;" d="M256,121.562c-23.082,0-44.822,5.849-63.821,16.14c2.936,6.269,6.316,12.748,10.182,19.445
	L256,255.439l53.638-98.293c3.866-6.697,7.246-13.177,10.182-19.445C300.822,127.411,279.082,121.562,256,121.562z"/>
<path style="fill:#FFE477;" d="M217.664,185.19L256,255.44l38.336-70.25C380.795,35.438,131.205,35.438,217.664,185.19z"/>
<path style="fill:#FFDA44;" d="M256,121.562c-20.177,0-39.326,4.476-56.518,12.475c1.301,14.481,6.852,31.528,18.182,51.153
	L256,255.44l38.336-70.25c11.33-19.624,16.881-36.671,18.182-51.153C295.325,126.039,276.177,121.562,256,121.562z"/>
<circle style="fill:#57E5D0;" cx="256" cy="136.839" r="27.317"/>
<path style="fill:#28C6AF;" d="M252.034,136.84c0-10.91,6.396-20.321,15.641-24.7c-3.541-1.677-7.498-2.618-11.676-2.618
	c-15.087,0-27.317,12.23-27.317,27.317s12.23,27.317,27.317,27.317c4.178,0,8.135-0.942,11.676-2.618
	C258.43,157.162,252.034,147.749,252.034,136.84z"/>
<circle style="fill:#FFE477;" cx="256" cy="38.632" r="13.761"/>
<path style="fill:#FFD422;" d="M256,38.632c0-5.09,2.771-9.524,6.881-11.905c-2.025-1.173-4.371-1.856-6.881-1.856
	c-7.6,0-13.761,6.16-13.761,13.761S248.4,52.393,256,52.393c2.51,0,4.855-0.683,6.881-1.856C258.771,48.157,256,43.723,256,38.632z"
	/>
<path style="fill:#003F8A;" d="M202.362,354.853L256,256.561l53.638,98.293C430.61,564.383,81.391,564.383,202.362,354.853z"/>
<path style="fill:#003068;" d="M256,390.439c23.082,0,44.822-5.849,63.821-16.14c-2.936-6.269-6.316-12.749-10.182-19.445
	L256,256.561l-53.638,98.293c-3.866,6.697-7.246,13.177-10.182,19.445C211.178,384.59,232.918,390.439,256,390.439z"/>
<path style="fill:#FFE477;" d="M217.664,326.811L256,256.561l38.336,70.25C380.795,476.562,131.205,476.562,217.664,326.811z"/>
<circle style="fill:#57E5D0;" cx="256" cy="375.161" r="27.317"/>
<path style="fill:#28C6AF;" d="M252.034,375.16c0,10.91,6.396,20.321,15.641,24.7c-3.541,1.677-7.498,2.618-11.676,2.618
	c-15.087,0-27.317-12.23-27.317-27.317c0-15.087,12.23-27.317,27.317-27.317c4.178,0,8.135,0.942,11.676,2.618
	C258.43,354.839,252.034,364.252,252.034,375.16z"/>
<circle style="fill:#FFE477;" cx="256" cy="473.368" r="13.761"/>
<path style="fill:#FFD422;" d="M256,473.368c0,5.09,2.771,9.524,6.881,11.905c-2.025,1.173-4.371,1.856-6.881,1.856
	c-7.6,0-13.761-6.16-13.761-13.761c0-7.601,6.16-13.761,13.761-13.761c2.51,0,4.855,0.683,6.881,1.856
	C258.771,463.843,256,468.277,256,473.368z"/>
<path style="fill:#003F8A;" d="M354.853,202.362L256.561,256l98.293,53.638C564.383,430.61,564.383,81.391,354.853,202.362z"/>
<path style="fill:#003068;" d="M390.439,256c0-23.082-5.849-44.822-16.14-63.821c-6.269,2.936-12.749,6.316-19.445,10.182
	L256.561,256l98.293,53.638c6.697,3.866,13.177,7.246,19.445,10.182C384.59,300.822,390.439,279.082,390.439,256z"/>
<path style="fill:#FFE477;" d="M326.811,217.664L256.561,256l70.25,38.336C476.562,380.795,476.562,131.205,326.811,217.664z"/>
<path style="fill:#FFDA44;" d="M390.439,256c0-20.177-4.476-39.326-12.475-56.518c-14.481,1.301-31.528,6.852-51.153,18.182
	L256.561,256l70.25,38.336c19.624,11.33,36.671,16.881,51.153,18.182C385.962,295.325,390.439,276.177,390.439,256z"/>
<circle style="fill:#57E5D0;" cx="375.161" cy="256" r="27.317"/>
<path style="fill:#28C6AF;" d="M375.16,252.034c10.91,0,20.321,6.396,24.7,15.641c1.677-3.541,2.618-7.498,2.618-11.676
	c0-15.087-12.23-27.317-27.317-27.317c-15.087,0-27.317,12.23-27.317,27.317c0,4.178,0.942,8.135,2.618,11.676
	C354.839,258.43,364.252,252.034,375.16,252.034z"/>
<circle style="fill:#FFE477;" cx="473.368" cy="256" r="13.761"/>
<path style="fill:#FFD422;" d="M473.368,256c5.09,0,9.524,2.771,11.905,6.881c1.173-2.025,1.856-4.371,1.856-6.881
	c0-7.6-6.16-13.761-13.761-13.761c-7.601,0-13.761,6.16-13.761,13.761c0,2.51,0.683,4.855,1.856,6.881
	C463.843,258.771,468.277,256,473.368,256z"/>
<path style="fill:#003F8A;" d="M157.147,202.362L255.44,256l-98.293,53.638C-52.382,430.61-52.382,81.391,157.147,202.362z"/>
<path style="fill:#003068;" d="M121.562,256c0,23.082,5.849,44.822,16.14,63.821c6.269-2.936,12.748-6.316,19.445-10.182
	L255.439,256l-98.293-53.638c-6.697-3.866-13.177-7.246-19.445-10.182C127.411,211.178,121.562,232.918,121.562,256z"/>
<path style="fill:#FFE477;" d="M185.19,217.664L255.44,256l-70.25,38.336C35.438,380.795,35.438,131.205,185.19,217.664z"/>
<path style="fill:#FFDA44;" d="M121.562,256c0,20.177,4.476,39.326,12.475,56.518c14.481-1.301,31.528-6.852,51.153-18.182
	L255.44,256l-70.25-38.336c-19.624-11.33-36.671-16.881-51.153-18.182C126.039,216.675,121.562,235.823,121.562,256z"/>
<circle style="fill:#57E5D0;" cx="136.839" cy="256" r="27.317"/>
<path style="fill:#28C6AF;" d="M136.84,252.034c-10.91,0-20.321,6.396-24.7,15.641c-1.677-3.541-2.618-7.498-2.618-11.676
	c0-15.087,12.23-27.317,27.317-27.317s27.317,12.23,27.317,27.317c0,4.178-0.942,8.135-2.618,11.676
	C157.162,258.43,147.749,252.034,136.84,252.034z"/>
<circle style="fill:#FFE477;" cx="38.632" cy="256" r="13.761"/>
<path style="fill:#FFD422;" d="M38.632,256c-5.09,0-9.524,2.771-11.905,6.881c-1.173-2.025-1.856-4.371-1.856-6.881
	c0-7.6,6.16-13.761,13.761-13.761S52.393,248.4,52.393,256c0,2.51-0.683,4.855-1.856,6.881C48.157,258.771,43.723,256,38.632,256z"
	/>
<circle style="fill:#F21C1C;" cx="256" cy="256" r="82.93"/>
<path style="fill:#FF3333;" d="M256,308.024c-28.686,0-52.024-23.338-52.024-52.024s23.338-52.024,52.024-52.024
	s52.024,23.338,52.024,52.024S284.687,308.024,256,308.024z"/>
<g>
</g>
<g>
</g>
<g>
</g>
<g>
</g>
<g>
</g>
<g>
</g>
<g>
</g>
<g>
</g>
<g>
</g>
<g>
</g>
<g>
</g>
<g>
</g>
<g>
</g>
<g>
</g>
<g>
</g>
</svg>
