<?xml version="1.0" encoding="iso-8859-1"?>
<!-- Generator: Adobe Illustrator 19.0.0, SVG Export Plug-In . SVG Version: 6.00 Build 0)  -->
<svg version="1.1" id="Layer_1" xmlns="http://www.w3.org/2000/svg" xmlns:xlink="http://www.w3.org/1999/xlink" x="0px" y="0px"
	 viewBox="0 0 511.999 511.999" style="enable-background:new 0 0 511.999 511.999;" xml:space="preserve">
<g>
	<path style="fill:#2D527C;" d="M229.759,451.102c-7.643,0-13.838-6.195-13.838-13.838v-16.602h-28.121v16.602
		c0,7.643-6.195,13.838-13.838,13.838s-13.838-6.195-13.838-13.838v-30.44c0-7.643,6.195-13.838,13.838-13.838h55.796
		c7.643,0,13.838,6.195,13.838,13.838v30.44C243.597,444.907,237.402,451.102,229.759,451.102z"/>
	<path style="fill:#2D527C;" d="M313.596,435.882h-30.089c-7.643,0-13.838-6.195-13.838-13.838s6.195-13.838,13.838-13.838h30.089
		c7.643,0,13.838,6.195,13.838,13.838S321.238,435.882,313.596,435.882z"/>
	<path style="fill:#2D527C;" d="M120.214,435.882H90.125c-7.643,0-13.838-6.195-13.838-13.838s6.195-13.838,13.838-13.838h30.089
		c7.643,0,13.838,6.195,13.838,13.838S127.856,435.882,120.214,435.882z"/>
</g>
<polygon style="fill:#CEE8FA;" points="251.333,285.387 251.333,115.912 313.596,115.912 313.596,69.196 90.126,69.196 
	90.126,354.222 313.596,354.222 313.596,285.387 "/>
<path style="fill:#2D527C;" d="M478.954,102.075h-94.44V32.866C384.513,14.744,369.769,0,351.648,0H52.074
	C33.953,0,19.207,14.744,19.207,32.866V437.62c0,41.013,33.367,74.379,74.38,74.379h216.546c41.013,0,74.379-33.367,74.379-74.379
	v-77.86c0-7.643-6.195-13.838-13.838-13.838c-7.643,0-13.838,6.195-13.838,13.838v77.86c0,25.753-20.952,46.703-46.703,46.703
	H93.587c-25.753,0-46.705-20.952-46.705-46.703V32.866c0-2.862,2.329-5.19,5.192-5.19h299.572c2.862,0,5.191,2.329,5.191,5.19
	v69.209h-29.405V69.196c0-7.643-6.195-13.838-13.838-13.838H90.125c-7.643,0-13.838,6.195-13.838,13.838v285.026
	c0,7.643,6.195,13.838,13.838,13.838h223.471c7.643,0,13.838-6.195,13.838-13.838v-54.998h151.52
	c7.643,0,13.838-6.195,13.838-13.838V115.912C492.791,108.27,486.595,102.075,478.954,102.075z M299.758,340.383H103.963V83.034
	h195.795v19.041h-48.426c-7.643,0-13.838,6.195-13.838,13.838l0,0v169.473l0,0c0,7.643,6.195,13.838,13.838,13.838h48.426V340.383z
	 M465.116,271.549H313.609c-0.004,0-0.008,0-0.014,0h-48.426V149.598l91.241,74.225c2.543,2.069,5.637,3.104,8.733,3.104
	c3.095,0,6.19-1.035,8.733-3.104l58.799-47.834c5.928-4.822,6.825-13.539,2.002-19.467c-4.822-5.928-13.539-6.825-19.467-2.002
	l-50.066,40.73l-80.516-65.5h28.969c0.004,0,0.008,0,0.014,0h151.507v141.8H465.116z"/>
<g>
</g>
<g>
</g>
<g>
</g>
<g>
</g>
<g>
</g>
<g>
</g>
<g>
</g>
<g>
</g>
<g>
</g>
<g>
</g>
<g>
</g>
<g>
</g>
<g>
</g>
<g>
</g>
<g>
</g>
</svg>
