<?xml version="1.0" encoding="iso-8859-1"?>
<!-- Generator: Adobe Illustrator 19.0.0, SVG Export Plug-In . SVG Version: 6.00 Build 0)  -->
<svg version="1.1" id="Layer_1" xmlns="http://www.w3.org/2000/svg" xmlns:xlink="http://www.w3.org/1999/xlink" x="0px" y="0px"
	 viewBox="0 0 512 512" style="enable-background:new 0 0 512 512;" xml:space="preserve">
<path style="fill:#2D527C;" d="M367.043,512H144.957c-41.013,0-74.379-33.367-74.379-74.379V32.866
	C70.579,14.744,85.321,0,103.444,0h305.111c18.123,0,32.866,14.744,32.866,32.866v250.808c0,7.642-6.196,13.838-13.838,13.838
	c-7.641,0-13.838-6.195-13.838-13.838V32.866c0-2.862-2.329-5.19-5.191-5.19H103.444c-2.862,0-5.19,2.329-5.19,5.19V437.62
	c0,25.753,20.952,46.703,46.703,46.703h222.085c25.752,0,46.703-20.952,46.703-46.703v-77.86c0-7.643,6.196-13.838,13.838-13.838
	c7.641,0,13.838,6.195,13.838,13.838v77.86C441.421,478.633,408.056,512,367.043,512z"/>
<rect x="141.49" y="69.202" style="fill:#CEE8FA;" width="229.012" height="285.027"/>
<g>
	<path style="fill:#2D527C;" d="M370.503,368.06H141.497c-7.641,0-13.838-6.195-13.838-13.838V69.196
		c0-7.643,6.196-13.838,13.838-13.838h229.007c7.641,0,13.838,6.195,13.838,13.838v285.026
		C384.341,361.865,378.145,368.06,370.503,368.06z M155.334,340.385h201.332V83.034H155.334V340.385z"/>
	<path style="fill:#2D527C;" d="M286.667,451.102c-7.641,0-13.838-6.195-13.838-13.838v-16.602h-33.659v16.602
		c0,7.643-6.196,13.838-13.838,13.838c-7.641,0-13.838-6.195-13.838-13.838v-30.44c0-7.643,6.196-13.838,13.838-13.838h61.334
		c7.641,0,13.838,6.195,13.838,13.838v30.44C300.505,444.907,294.309,451.102,286.667,451.102z"/>
	<path style="fill:#2D527C;" d="M370.503,435.882h-30.087c-7.641,0-13.838-6.195-13.838-13.838s6.196-13.838,13.838-13.838h30.087
		c7.641,0,13.838,6.195,13.838,13.838S378.145,435.882,370.503,435.882z"/>
	<path style="fill:#2D527C;" d="M171.584,435.882h-30.087c-7.641,0-13.838-6.195-13.838-13.838s6.196-13.838,13.838-13.838h30.087
		c7.641,0,13.838,6.195,13.838,13.838S179.226,435.882,171.584,435.882z"/>
</g>
<g>
</g>
<g>
</g>
<g>
</g>
<g>
</g>
<g>
</g>
<g>
</g>
<g>
</g>
<g>
</g>
<g>
</g>
<g>
</g>
<g>
</g>
<g>
</g>
<g>
</g>
<g>
</g>
<g>
</g>
</svg>
