<svg height="512" viewBox="0 0 512 512" width="512" xmlns="http://www.w3.org/2000/svg"><g id="filled_outline" data-name="filled outline"><path d="m304 240h113.418a38.582 38.582 0 0 1 38.582 38.582v105.418a0 0 0 0 1 0 0h-152a0 0 0 0 1 0 0v-144a0 0 0 0 1 0 0z" fill="#d32b39"/><path d="m440 352h32a16 16 0 0 1 16 16 16 16 0 0 1 -16 16h-16z" fill="#a8a8a8"/><path d="m352 208a8 8 0 0 1 -8-8v-48a8 8 0 0 1 3.562-6.656l24-16a8 8 0 0 1 8.876 13.312l-20.438 13.625v43.719a8 8 0 0 1 -8 8z" fill="#eaeae8"/><path d="m106.667 288-26.667-40h104l72 136h-44z" fill="#961b20"/><path d="m64 216 32-136h160l48 160h-16v144l-88.228-168.123z" fill="#eaeae8"/><path d="m336 200h32v184h-32z" fill="#a8a8a8"/><circle cx="115.882" cy="364.118" fill="#0296e5" r="91.882"/><g fill="#026ca2"><path d="m53.2 362.77-24 16a8.015 8.015 0 0 1 -3.82 1.33 92.477 92.477 0 0 1 -1.38-15.98c0-.37 0-.75.01-1.12l20.32-13.54a8 8 0 0 1 8.87 13.31z"/><path d="m70.61 407.49-5.66 28.28a7.917 7.917 0 0 1 -1.76 3.63 92.5 92.5 0 0 1 -13.06-11.11l4.79-23.94a8 8 0 0 1 15.69 3.14z"/><path d="m81.92 312.57a8 8 0 0 1 -7.83 6.43 8.533 8.533 0 0 1 -1.58-.15l-28.28-5.66a7.966 7.966 0 0 1 -3.63-1.76 91.937 91.937 0 0 1 11.11-13.06l23.94 4.79a7.99 7.99 0 0 1 6.27 9.41z"/><path d="m131.86 454.62a92.477 92.477 0 0 1 -15.98 1.38c-.37 0-.74 0-1.11-.01l-13.54-20.32a8 8 0 1 1 13.31-8.87l16 24a7.9 7.9 0 0 1 1.32 3.82z"/><path d="m128.32 303.66a8 8 0 0 1 -11.09-2.22l-16-24a7.9 7.9 0 0 1 -1.32-3.82 92.275 92.275 0 0 1 15.97-1.38c.37 0 .75 0 1.12.01l13.54 20.31a8 8 0 0 1 -2.22 11.1z"/><path d="m181.63 299.95-4.79 23.93a8 8 0 0 1 -7.83 6.44 7.772 7.772 0 0 1 -1.58-.16 8.009 8.009 0 0 1 -6.28-9.41l5.66-28.29a7.93 7.93 0 0 1 1.76-3.62 90.65 90.65 0 0 1 13.06 11.11z"/><path d="m191.16 416.81a91.193 91.193 0 0 1 -11.11 13.06l-23.93-4.79a8 8 0 0 1 3.13-15.69l28.29 5.66a7.736 7.736 0 0 1 3.62 1.76z"/><path d="m207.76 364.12c0 .37 0 .74-.01 1.11l-20.31 13.54a8 8 0 1 1 -8.88-13.31l24-16a7.881 7.881 0 0 1 3.82-1.31 92.361 92.361 0 0 1 1.38 15.97z"/></g><circle cx="115.882" cy="364.118" fill="#eaeae8" r="44.118"/><circle cx="115.882" cy="364.118" fill="#eaeae8" r="35.882"/><circle cx="392.924" cy="391.076" fill="#0296e5" r="64.924"/><g fill="#026ca2"><path d="m347.68 395.42-14.11 9.82a8.092 8.092 0 0 1 -3.6 1.37 64.927 64.927 0 0 1 -1.97-15.94c0-.35 0-.71.01-1.06l10.53-7.32a8 8 0 1 1 9.14 13.13z"/><path d="m364.29 426.02-3.04 16.92a8.028 8.028 0 0 1 -1.56 3.5 65.075 65.075 0 0 1 -13.41-10.62l2.26-12.62a8 8 0 1 1 15.75 2.82z"/><path d="m366.86 355.57a8.014 8.014 0 0 1 -7.87 6.59 7.656 7.656 0 0 1 -1.42-.13l-16.92-3.03a7.929 7.929 0 0 1 -3.5-1.57 65.075 65.075 0 0 1 10.62-13.41l12.63 2.27a7.991 7.991 0 0 1 6.46 9.28z"/><path d="m399.31 347.83a8.011 8.011 0 0 1 -11.14-2l-9.81-14.11a8.039 8.039 0 0 1 -1.42-4 65.253 65.253 0 0 1 15.98-1.98c.26 0 .52 0 .78.01l7.61 10.94a8.015 8.015 0 0 1 -2 11.14z"/><path d="m408.86 453.62a64.927 64.927 0 0 1 -15.94 1.97c-.35 0-.7 0-1.05-.01l-7.33-10.53a8 8 0 0 1 13.14-9.14l9.81 14.11a7.975 7.975 0 0 1 1.37 3.6z"/><path d="m439.63 345.58-2.32 12.97a8.014 8.014 0 0 1 -7.87 6.59 8.62 8.62 0 0 1 -1.42-.13 8 8 0 0 1 -6.46-9.29l3.03-16.92a7.887 7.887 0 0 1 1.8-3.78 64.718 64.718 0 0 1 13.24 10.56z"/><path d="m448.54 424.19a65.5 65.5 0 0 1 -10.82 13.47l-12.27-2.2a8 8 0 1 1 2.83-15.75l16.92 3.04a7.912 7.912 0 0 1 3.34 1.44z"/><path d="m457.85 390.67c0 .49-.01.98-.02 1.47l-10.52 7.32a8 8 0 1 1 -9.14-13.14l14.11-9.81a7.873 7.873 0 0 1 3.7-1.38 65.212 65.212 0 0 1 1.87 15.54z"/></g><circle cx="392.924" cy="391.076" fill="#eaeae8" r="24.924"/><path d="m278.382 257.562a7.991 7.991 0 0 1 -6.664-3.562l-22.374-33.56a8 8 0 1 1 13.312-8.876l22.374 33.561a8 8 0 0 1 -6.648 12.439z" fill="#a8a8a8"/><path d="m240.006 232a8 8 0 0 1 -4.806-14.4l24-18a8 8 0 1 1 9.6 12.8l-24 18a7.965 7.965 0 0 1 -4.794 1.6z" fill="#cbcbcb"/><path d="m304 240h-26a22 22 0 0 0 -22 22v63l30 59h18z" fill="#961b20"/><path d="m102 48h148a14 14 0 0 1 14 14v18a0 0 0 0 1 0 0h-176a0 0 0 0 1 0 0v-18a14 14 0 0 1 14-14z" fill="#e82f3e"/><path d="m128 80h32v136h-32z" fill="#961b20"/><path d="m400 296a8 8 0 0 1 -8-8v-16a8 8 0 0 1 16 0v16a8 8 0 0 1 -8 8z" fill="#961b20"/><path d="m424 296a8 8 0 0 1 -8-8v-16a8 8 0 0 1 16 0v16a8 8 0 0 1 -8 8z" fill="#961b20"/><path d="m256 264h48v16h-48z" fill="#d32b39"/><path d="m256 296h48v16h-48z" fill="#d32b39"/><path d="m256 328h48v16h-48z" fill="#d32b39"/><path d="m24 264h40l16-16h104l72 136h32l-88-168h-136z" fill="#e82f3e"/><path d="m344 184h16v16h-16z" fill="#cbcbcb"/><path d="m115.882 416.235a52.118 52.118 0 1 0 -52.117-52.117 52.177 52.177 0 0 0 52.117 52.117zm0-88.235a36.118 36.118 0 1 1 -36.117 36.118 36.158 36.158 0 0 1 36.117-36.118z"/><path d="m392.924 424a32.925 32.925 0 1 0 -32.924-32.924 32.962 32.962 0 0 0 32.924 32.924zm0-49.849a16.925 16.925 0 1 1 -16.924 16.925 16.945 16.945 0 0 1 16.924-16.925z"/><path d="m472 344h-8v-65.418a46.634 46.634 0 0 0 -46.582-46.582h-41.418v-32a8 8 0 0 0 -8-8h-8v-35.719l20.438-13.625a8 8 0 0 0 -8.876-13.312l-24 16a8 8 0 0 0 -3.562 6.656v40h-8a8 8 0 0 0 -8 8v32h-18.047l-43.334-144.447a8 8 0 0 0 5.381-7.553v-18a22.025 22.025 0 0 0 -22-22h-148a22.025 22.025 0 0 0 -22 22v18a8 8 0 0 0 5.963 7.728l-29.317 124.602-38.792 46.549a8 8 0 0 0 6.146 13.121h40a8 8 0 0 0 5.657-2.343l9.1-9.1 5.808 8.713a99.884 99.884 0 1 0 127.235 122.73h108.223a72.907 72.907 0 0 0 145.8 0h6.177a24 24 0 0 0 0-48zm-54.582-96a30.617 30.617 0 0 1 30.582 30.582v64.777a72.708 72.708 0 0 0 -72-23.2v-72.159zm-73.418-40h16v118.039a73.251 73.251 0 0 0 -16 11.008zm-51.159 168-16.762-32h19.921v32zm-218.741-168 28.236-120h17.664v120zm61.9-120h16v120h-16zm32 0h82.048l43.2 144h-15.248c-.566 0-1.127.019-1.685.05l-11.239-16.857 3.724-2.793a8 8 0 1 0 -9.6-12.8l-24 18a8 8 0 1 0 9.6 12.8l7.457-5.593 8.462 12.693a29.98 29.98 0 0 0 -12.719 24.5v28.4l-40.913-78.107a8 8 0 0 0 -7.087-4.293h-32zm110 160h18v16h-32v-2a14.015 14.015 0 0 1 14-14zm-14 32h32v16h-32zm-.046 40.852a8.262 8.262 0 0 0 .046-.852v-8h32v16h-28.3zm-167.954-258.852a6.006 6.006 0 0 1 6-6h148a6.006 6.006 0 0 1 6 6v10h-160zm-63.1 314.312 20.3-13.538a8 8 0 1 0 -8.875-13.312l-12.041 8.027a83.428 83.428 0 0 1 16.325-43.423l23.9 4.781a8.11 8.11 0 0 0 1.578.157 8 8 0 0 0 1.56-15.847l-14.147-2.829a83.544 83.544 0 0 1 42.186-19.2l13.538 20.306a8 8 0 0 0 13.312-8.876l-8.027-12.041a83.429 83.429 0 0 1 43.423 16.326l-4.781 23.9a8 8 0 1 0 15.69 3.139l2.829-14.148a83.551 83.551 0 0 1 19.2 42.188l-20.306 13.537a8 8 0 1 0 8.876 13.312l12.041-8.027a83.419 83.419 0 0 1 -16.326 43.422l-23.9-4.779a8 8 0 0 0 -3.137 15.689l14.147 2.829a83.559 83.559 0 0 1 -42.188 19.2l-13.539-20.305a8 8 0 1 0 -13.312 8.875l8.027 12.041a83.418 83.418 0 0 1 -43.422-16.325l4.779-23.9a8 8 0 1 0 -15.689-3.136l-2.829 14.145a83.568 83.568 0 0 1 -19.192-42.188zm82.986-112.077a100.224 100.224 0 0 0 -14.719 1.087l-6.219-9.322h84.236l63.529 120h-27.658a99.877 99.877 0 0 0 -99.173-111.765zm144.93 111.765-69.746-131.743a8 8 0 0 0 -7.07-4.257h-104a8 8 0 0 0 -5.657 2.343l-13.656 13.657h-19.607l26.667-32h127.412l79.619 152zm51.184-128h16v109.933a72.308 72.308 0 0 0 -6.424 18.067h-9.576zm25.281 155.061 10.4-7.233a8 8 0 0 0 -9.137-13.135l-2.105 1.465a56.518 56.518 0 0 1 8.7-23.949l12.436 2.233a8 8 0 0 0 2.828-15.748l-2.492-.447a56.708 56.708 0 0 1 23.034-10.815l7.233 10.4a8 8 0 0 0 13.135-9.137l-1.465-2.105a56.54 56.54 0 0 1 23.948 8.7l-2.232 12.437a8 8 0 1 0 15.748 2.828l.447-2.492a56.708 56.708 0 0 1 10.815 23.034l-10.4 7.232a8 8 0 1 0 9.137 13.135l2.105-1.465a56.54 56.54 0 0 1 -8.7 23.949l-12.438-2.232a8 8 0 0 0 -2.826 15.748l2.49.447a56.7 56.7 0 0 1 -23.033 10.814l-7.232-10.4a8 8 0 1 0 -13.135 9.137l1.465 2.105a56.513 56.513 0 0 1 -23.949-8.7l2.232-12.437a8 8 0 0 0 -15.748-2.826l-.447 2.49a56.709 56.709 0 0 1 -10.814-23.033zm134.719-27.061h-7.728a72.3 72.3 0 0 0 -5.394-16h13.122a8 8 0 0 1 0 16z"/><path d="m400 296a8 8 0 0 0 8-8v-16a8 8 0 0 0 -16 0v16a8 8 0 0 0 8 8z"/><path d="m424 296a8 8 0 0 0 8-8v-16a8 8 0 0 0 -16 0v16a8 8 0 0 0 8 8z"/></g></svg>