<svg id="Capa_1" enable-background="new 0 0 512 512" height="512" viewBox="0 0 512 512" width="512" xmlns="http://www.w3.org/2000/svg"><g><g><path d="m338.834 338.835h16.568c36.596 0 66.263 29.667 66.263 66.263l.001 82.836c0 9.15-7.417 16.567-16.567 16.567h-22.82l-126.279-10-132.533 10h-16.567c-9.149 0-16.567-7.417-16.567-16.567v-82.834c0-36.596 37.95-66.263 74.546-66.263l8.286-.002z" fill="#a6ccfb"/><path d="m421.664 405.098c0-36.596-29.667-66.263-66.263-66.263h-16.568-6.262c36.587.01 66.244 29.673 66.244 66.262l.002 82.835c0 9.15-7.417 16.567-16.567 16.567h22.849c9.15 0 16.567-7.417 16.567-16.567z" fill="#8cbdf9"/><path d="m347.118 116v-50.517c0-22.874-18.543-41.417-41.417-41.417h-28.992-41.417-28.99c-22.874 0-41.417 18.543-41.417 41.417v50.517z" fill="#eaa96a"/><path d="m276.709 116h-41.417v-100.5c0-4.418 3.582-8 8-8h25.417c4.418 0 8 3.582 8 8z" fill="#efd27c"/><path d="m305.701 24.066h-23c22.874 0 41.417 18.543 41.417 41.417v50.517h23v-50.517c0-22.874-18.543-41.417-41.417-41.417z" fill="#e5935d"/><path d="m173.168 206.301h-16.567c-9.149 0-16.567-7.417-16.567-16.567v-33.134c0-9.149 7.417-16.567 16.567-16.567h16.567 165.666 16.567c9.15 0 16.567 7.417 16.567 16.567v33.134c0 9.149-7.417 16.567-16.567 16.567h-16.567z" fill="#ebb39a"/><path d="m206.3 256v115.968h99.4v-115.953z" fill="#ebb39a"/><path d="m206.3 322.266-33.133 16.57 28.938 57.871c2.228 4.456 7.858 5.951 12.003 3.188l41.892-27.927z" fill="#f4f2f4"/><path d="m305.701 322.266 33.133 16.57-28.938 57.871c-2.228 4.456-7.858 5.951-12.003 3.188l-41.892-27.926z" fill="#f4f2f4"/><path d="m173.168 132.533.001 73.77c0 45.747 37.085 82.832 82.832 82.832s82.832-37.085 82.832-82.832v-73.77z" fill="#f4dabd"/><path d="m371.967 123.467c0-9.15-7.417-16.567-16.567-16.567h-198.8c-9.149 0-16.567 7.417-16.567 16.567v8.283c0 4.575 3.708 8.283 8.283 8.283h215.366c4.575 0 8.283-3.709 8.283-8.283v-8.283z" fill="#efd27c"/><path d="m355.401 106.9h-23c9.15 0 16.567 7.417 16.567 16.567v8.283c0 4.575-3.708 8.283-8.283 8.283h23c4.575 0 8.283-3.708 8.283-8.283v-8.283c-.001-9.15-7.418-16.567-16.567-16.567z" fill="#eabc73"/><path d="m371.967 340.922c-5.295-1.363-10.845-2.087-16.565-2.087h-16.567v104.398h33.132z" fill="#efd27c"/><path d="m355.402 338.835h-5.783v104.398h22.348v-102.311c-5.295-1.362-10.845-2.087-16.565-2.087z" fill="#eabc73"/><path d="m173.167 338.835h-.23l-8.056.002c-8.37 0-16.805 1.567-24.846 4.399v99.997h33.132z" fill="#efd27c"/><path d="m388.534 504.5h-82.833l-49.7-10-49.7 10h-82.833v-50.267c0-8.837 7.163-16 16-16h233.066c8.836 0 16 7.163 16 16z" fill="#efd27c"/><path d="m305.701 504.499h-99.4v-25.133c0-4.418 3.582-8 8-8h83.4c4.418 0 8 3.582 8 8z" fill="#eaa96a"/><path d="m372.534 438.233h-22.915c8.837 0 16 7.164 16 16v50.267h22.915v-50.267c0-8.836-7.164-16-16-16z" fill="#eabc73"/><path d="m297.701 471.366h-23.001c4.418 0 8 3.582 8 8v25.134h23.001v-25.133c0-4.419-3.582-8.001-8-8.001z" fill="#e5935d"/></g><g fill="#131213"><path d="m429.165 405.098c0-40.673-33.09-73.763-73.763-73.763h-14.798l-27.404-13.705v-41.464c18.399-15.092 30.751-37.293 32.82-62.366h9.38c13.271 0 24.067-10.796 24.067-24.066v-33.134c0-5.176-1.648-9.972-4.44-13.902 2.742-2.841 4.44-6.697 4.44-10.948v-8.283c0-13.271-10.796-24.066-24.066-24.066h-.783v-33.918c0-26.973-21.944-48.917-48.917-48.917h-21.492v-1.066c0-8.547-6.953-15.5-15.5-15.5h-25.417c-8.547 0-15.5 6.953-15.5 15.5v1.066h-21.491c-26.973 0-48.917 21.944-48.917 48.917l.001 33.917h-.784c-13.27 0-24.067 10.796-24.067 24.066v8.283c0 4.251 1.697 8.107 4.44 10.948-2.791 3.93-4.44 8.725-4.44 13.901v33.135c0 13.27 10.796 24.066 24.067 24.066h9.381c2.07 25.072 14.42 47.272 32.818 62.364v41.466l-27.405 13.705-6.515.002c-9.047 0-18.228 1.647-27.048 4.715-.098.03-.193.069-.289.103-10.281 3.615-20.061 9.165-28.526 16.384-16.884 14.398-26.183 33.065-26.183 52.562v18.133c0 4.143 3.358 7.5 7.5 7.5s7.5-3.357 7.5-7.5v-18.133c0-21.622 15.387-40.07 34.7-50.265v76.941c-9.584 2.965-16.567 11.91-16.567 22.455v42.769h-9.066c-4.999 0-9.067-4.067-9.067-9.066v-34.7c0-4.143-3.358-7.5-7.5-7.5s-7.5 3.357-7.5 7.5v34.7c0 13.271 10.796 24.066 24.067 24.066h16.566 201.45c4.143 0 7.5-3.357 7.5-7.5s-3.357-7.5-7.5-7.5h-11.717v-17.634c0-8.547-6.953-15.5-15.5-15.5h-83.4c-8.547 0-15.5 6.953-15.5 15.5v17.634h-67.833v-42.768c0-4.686 3.813-8.5 8.5-8.5h.567 231.932.567c4.686 0 8.5 3.814 8.5 8.5v42.768h-26.116c-4.143 0-7.5 3.357-7.5 7.5s3.357 7.5 7.5 7.5h33.616 16.565c13.271 0 24.066-10.796 24.066-24.066zm-215.364 74.268c0-.275.224-.5.5-.5h83.4c.275 0 .5.225.5.5v17.633h-84.4zm150.666-132.33v50.564h-18.132v-51.265h9.067c3.082 0 6.109.242 9.065.701zm-183.8 23.567 14.73 29.457c2.024 4.047 5.693 7.034 10.066 8.195 1.333.355 2.694.528 4.048.528 3.087 0 6.14-.905 8.757-2.65l37.732-25.152 37.732 25.153c2.617 1.745 5.67 2.65 8.758 2.65 1.354 0 2.716-.174 4.049-.528 4.373-1.162 8.042-4.149 10.064-8.195l14.731-29.46v60.132h-150.667zm122.52 22.75c-.105.209-.272.346-.499.406-.224.059-.44.024-.636-.105l-34.279-22.852 39.408-39.41 21.59 10.797zm61.281-203.62c0 4.999-4.067 9.066-9.067 9.066h-9.066v-51.267h9.087c4.991.011 9.047 4.073 9.047 9.066v33.135zm-58.767-158.167c18.702 0 33.917 15.215 33.917 33.917v33.917h-18.134v-9.066c0-4.143-3.357-7.5-7.5-7.5s-7.5 3.357-7.5 7.5v9.066h-22.275v-67.834zm-62.909-16.066c0-.275.224-.5.5-.5h25.417c.275 0 .5.225.5.5v83.9h-26.417zm-70.407 49.983c0-18.702 15.215-33.917 33.917-33.917h21.491v67.834h-22.275v-9.066c0-4.143-3.358-7.5-7.5-7.5s-7.5 3.357-7.5 7.5v9.066h-18.132zm-24.851 57.984c0-4.999 4.067-9.066 9.067-9.066h198.8c4.999 0 9.066 4.067 9.066 9.066v8.283c0 .432-.352.783-.783.783h-215.366c-.432 0-.783-.352-.783-.783v-8.283zm0 66.267v-33.134c0-4.999 4.067-9.066 9.067-9.066h9.066l.001 51.268h-9.067c-4.999-.001-9.067-4.069-9.067-9.068zm33.135 16.57-.001-58.77h150.666v58.77c0 41.538-33.794 75.332-75.333 75.332-41.538 0-75.332-33.794-75.332-75.332zm75.332 90.332c15.234 0 29.596-3.796 42.199-10.484v33.008l-42.2 42.202-42.2-42.202v-33.009c12.604 6.688 26.966 10.485 42.201 10.485zm-51.182 34.756 39.408 39.41-34.279 22.852c-.195.13-.407.165-.635.105-.227-.061-.395-.197-.5-.407l-25.584-51.163zm-39.936 14.945h.784v51.263h-18.132v-48.769c5.782-1.62 11.65-2.494 17.348-2.494zm-17.349 84.395v-18.132h18.132v18.133h-18.132zm198.801 0v-18.132h18.132v18.133h-18.132zm58.764 66.268h-9.065v-42.768c0-10.546-6.983-19.49-16.567-22.455v-80.267c20.432 9.212 34.698 29.759 34.698 53.588l.001 82.836c0 4.999-4.068 9.066-9.067 9.066z"/><path d="m256.001 230.369c8.55 0 16.532-4.606 20.832-12.021 2.078-3.583.857-8.172-2.727-10.25-3.58-2.076-8.173-.857-10.25 2.727-1.626 2.804-4.636 4.545-7.855 4.545-3.22 0-6.229-1.741-7.854-4.544-2.077-3.585-6.665-4.805-10.25-2.727-3.583 2.077-4.805 6.666-2.728 10.249 4.299 7.415 12.281 12.021 20.832 12.021z"/><path d="m222.867 188.95c4.142 0 7.5-3.357 7.5-7.5v-8.283c0-4.143-3.358-7.5-7.5-7.5s-7.5 3.357-7.5 7.5v8.283c0 4.143 3.358 7.5 7.5 7.5z"/><path d="m289.134 188.95c4.143 0 7.5-3.357 7.5-7.5v-8.283c0-4.143-3.357-7.5-7.5-7.5s-7.5 3.357-7.5 7.5v8.283c0 4.143 3.357 7.5 7.5 7.5z"/></g></g></svg>